<?xml version="1.0" encoding="UTF-8"?>
<svg xmlns="http://www.w3.org/2000/svg" version="1.1" viewBox="0 0 800 800">
  <defs>
    <style>
      .cls-1 {
        fill: #fcfcfc;
      }
    </style>
  </defs>
  <!-- Generator: Adobe Illustrator 28.6.0, SVG Export Plug-In . SVG Version: 1.2.0 Build 709)  -->
  <g>
    <g id="Capa_1">
      <path class="cls-1" d="M654.7,33.1l-56.2,656.6c-7.4,9.7-109.6,43.5-109.6,43.5l-43.3,35.9-.7-232,23,14.5c28.4-.7,87.9-52.5,104.8-75.9s9.5-130.5,9.5-130.5c-29.1,1.4-100.1,24.2-109.6,31.1-1.3.9-3.4,1.9-6.1,2.8-18.9,26.3-42.1,51-66.6,65.7,0,0-40.4-31.6-73.4-70.8-1.6-.3-2.5-.5-2.5-.5-16.9-13.8-109.5-30.4-109.5-30.4-5.4,26.2,10.1,132.5,10.1,132.5,0,0,9.5,16.6,32.5,36.6,23,20,75.1,40,75.1,40l24.3-15.2-6.1,232-35.8-35.2s-48.7-17.3-84.5-29.7c-35.8-12.4-33.6-45.2-33.6-45.2L145.3,33.1l70.3,61.1c7.8,52.5,15.7,104.9,23.5,157.4,14.1,3.9,30,7.8,47.7,11.1,8.8-47.5,39.7-77.6,39.7-77.6,0,0,23.7,47.6,28.4,49,0,0,38-94.4,45.1-94.8,0,0,42.1,71.8,43.1,95.6,0,.6,0,1.1,0,1.6,1.7-2.4,32.4-44.9,31.7-48.2,0,0,27.2,42.1,35.5,74.8,18.6-3.5,35.4-7.5,50.1-11.6l25.1-160.2,69.1-58.3Z"/>
    </g>
  </g>
</svg>